<svg xmlns="http://www.w3.org/2000/svg" viewBox="0 0 445 100">
    <path fill="#0063a3" d="M115.85 87.13v-62H93V11.21h62.57v14h-23v62Z"/>
    <path fill="#0063a3" d="M141.9 87.13V32.74h16.52v8.84h.1c3-4.62 8.21-10.26 18.47-10.26h.51V46c-.61-.11-3.49-.31-4.51-.31a18.27 18.27 0 0 0-14.57 7.49v34ZM182.72 25V11.72h16.62V25Zm.11 62.17V32.44h16.41v54.69ZM205.7 87.13V32.44h16.51v8.62c3.29-4.31 9.34-9.74 18-9.74 9.13 0 13.44 3.79 15 9.74 3.28-4.2 9.44-9.74 18-9.74 11.08 0 16 7 16 16.72v39.09h-16.52V52.45c0-4.92-1.13-7.49-5.95-7.49-4.1 0-7.39 2.26-11 5.44v36.73h-16.49V52.45c0-4.92-1.13-7.49-6-7.49-4.1 0-7.38 2.26-11.08 5.44v36.73ZM312 80.66v6.47h-16.55V11.21H312v29.65c3.59-5 8.72-9.54 16.82-9.54 12.42 0 21 9.54 21 28.41S341.11 88 328.59 88c-7.39 0-12.52-2.72-16.59-7.34m21.34-20.82c0-9.13-3.18-14.88-10.57-14.88-4.21 0-8 2.57-10.77 5.34v20.21c3.59 3.38 6.56 5 11 5 6.82.02 10.31-5.72 10.31-15.67ZM354.94 87.13V11.21h16.41v75.92ZM376.47 59.84c0-21.24 16.21-28.52 27.49-28.52S429.1 37 429.1 61.79v2.46h-36.22c.83 9 5.85 12.51 12.73 12.51a25.16 25.16 0 0 0 16.21-6.56l6.36 9.85c-6.36 5.44-14.26 8.21-23.8 8.21-14.27 0-27.91-7.26-27.91-28.42m37.86-5.34c-.82-7.69-4.31-11.39-10.47-11.39-5.13 0-9.54 3.39-10.77 11.39ZM432.22 81a6.19 6.19 0 0 1 6.26-6.26 6.26 6.26 0 1 1-6.26 6.26m11.38 0a5.14 5.14 0 1 0-5.12 5.23A5.12 5.12 0 0 0 443.6 81m-7.55-3.56h2.56c1.62 0 2.56.7 2.56 2.1a1.84 1.84 0 0 1-1.34 1.94l1.48 2.81h-1.43l-1.38-2.62h-1.08v2.62h-1.37Zm2.48 3.18c.84 0 1.3-.27 1.3-1s-.46-1-1.33-1h-1.08v2ZM6.19 76.41V100l20.52-11.84A39.1 39.1 0 0 1 6.19 76.41M26.56 11.74 6.19 0v23.45a39.33 39.33 0 0 1 20.37-11.71M92.8 50 72.29 38.16a39.27 39.27 0 0 1-.06 23.72ZM19.7 17.92c2.94-.65 9.05 0 12.28.89a18.7 18.7 0 0 1 10.37-3.45 41.1 41.1 0 0 0-22.65 2.56M58.79 60.84a53 53 0 0 0-3.21-13.13c-7 3.18-15.72 1.13-21.53-3.9a96 96 0 0 0-11.43 14.51c9.85 8.03 26.05 10.14 36.17 2.52M17.23 59.09C8.55 50.19 5.52 37.22 8.3 27.25a35 35 0 0 0 2 47.47 63.4 63.4 0 0 1 6.93-15.63M54 43.94a47.2 47.2 0 0 0-7-10.78 81 81 0 0 0-10 7.77c5.26 4.37 12.14 5.23 17 3.01M47.47 27.72a36.3 36.3 0 0 1 7.62-4.23c-5.56-5.62-14.5-5.47-18.39-3a37.2 37.2 0 0 1 10.77 7.23"/>
    <path fill="#0063a3" d="M20.4 62c-4.32 7.47-5.9 13-6.48 15.87A35 35 0 0 0 57.1 77a30 30 0 0 0 2-11.33c-11.96 7.12-28.44 4.4-38.7-3.67M57.4 41.45c3.83-4 3.06-10.84.15-14.78a29.6 29.6 0 0 0-7.13 4.18 52.7 52.7 0 0 1 6.98 10.6M64 32.85a14.1 14.1 0 0 1-4.84 12.59 57.4 57.4 0 0 1 3.33 11.76c5.25-6.82 5.09-16.56 1.51-24.35M34.16 37.9A83 83 0 0 1 44 30.11a33.2 33.2 0 0 0-10.82-6.59c-3.26 4.37-2.26 10.01.98 14.38M63.12 62.69a49.4 49.4 0 0 1-.43 8.88A35.37 35.37 0 0 0 70 47.07a26.82 26.82 0 0 1-6.88 15.62M29.1 22.28a28.4 28.4 0 0 0-13.9.09c-6.89 9.77-3.69 24.08 4.33 33a101 101 0 0 1 11.65-14.58c-4.08-5.07-5.7-12.9-2.08-18.51"/>
</svg>
