<svg xmlns="http://www.w3.org/2000/svg" viewBox="0 0 732 789">
  <path d="M543.59 674.86a54.34 54.34 0 0 1 54.9-54.9c30.76 0 54.43 23.9 54.43 54.67 0 73.17-109.33 73.15-109.33.23m99.86 0c0-60.79-90.16-61.1-90.16-.23s90.16 61.53 90.16.23m-66.26-31.23c22 0 45-3.33 45 18.46 0 9.7-4.73 14.67-11.83 17l13 24.62h-12.57l-12.07-23h-9.46v23h-12.07zm33.13 19.17c0-10-10.71-8.52-21.06-8.52v17.27c10.51 0 21.06 1.68 21.06-8.75M48.86 602.72v186.13l161.81-93.42a308.1 308.1 0 0 1-161.81-92.71M209.49 92.58 48.86 0v185a310.2 310.2 0 0 1 160.63-92.42M732 394.43 570.25 301a309.33 309.33 0 0 1-.48 187.08zM155.4 141.39c23.23-5.16 71.39-.27 96.87 7 20.38-16.21 51.17-25.6 81.82-27.15-70.46-12.72-135.64 2.05-178.69 20.15m308.34 338.53a416.8 416.8 0 0 0-25.28-103.53c-55.43 25-124 8.88-169.86-30.79-33.41 34.15-65.75 76.68-90.16 114.49 77.71 63.35 205.56 79.99 285.3 19.83m-327.8-13.82C67.43 396 43.55 293.61 65.49 215a276 276 0 0 0 16.16 374.43c11.21-42.43 31.97-85.72 54.29-123.33m289.7-119.45a372.8 372.8 0 0 0-55.49-85.1 635.4 635.4 0 0 0-78.09 61.34c41.29 34.45 95.61 41.21 133.58 23.76m-51.16-128.02c17.78-12.93 42.42-26.76 60.09-33.32-43.84-44.38-114.38-43.2-145-23.94a293.6 293.6 0 0 1 84.91 57.26"/>
  <path d="M160.91 488.67c-34.09 58.94-46.53 102.19-51.06 125.2a276 276 0 0 0 340.58-6.21c10.24-24.74 15.47-55.53 15.45-89.38-93.99 55.94-223.99 34.43-304.97-29.61M452.81 327c30.17-31.7 24.12-85.56 1.17-116.62-14.14 4.78-43.57 21.94-56.26 33A413.6 413.6 0 0 1 452.81 327M505 259.11c4.65 40.7-10.79 75.93-38.17 99.35A448.7 448.7 0 0 1 493 451.19c41.36-53.81 40.1-130.56 12-192.08M269.45 299a672.5 672.5 0 0 1 77.22-61.49 262 262 0 0 0-85.35-52C236.05 220 243.94 264.52 269.45 299m228.49 195.52c1.4 23.09-.72 49.29-3.42 70 47.34-60.32 63.34-135 57.75-193.22-5.67 49.03-23.62 90.05-54.33 123.22M229.55 175.76c-34.94-8.54-75.63-8.91-109.67.72-54.33 77-29.1 189.94 34.2 260.64C178.13 400.5 213 354.9 246 321.75c-32.23-39.94-45-101.75-16.45-145.99"/>
</svg>
